<svg viewBox="0 0 226 226" fill="none" xmlns="http://www.w3.org/2000/svg"><rect width="226" height="226" rx="113" fill="#02ABB1"/><path d="M68.1 117.5V109C68.1 103.533 70.2333 98.8333 74.5 94.9C78.7666 90.9667 83.9333 89 90 89C95.6666 89 100.5 90.8 104.5 94.4C108.567 97.9333 110.6 102.4 110.6 107.8C110.6 109.8 110.333 111.467 109.8 112.8C109.333 114.067 108.567 114.967 107.5 115.5C106.5 116.033 105.567 116.367 104.7 116.5C103.833 116.633 102.7 116.7 101.3 116.7H81V118.2C81 121.067 82.0666 123.4 84.2 125.2C86.3333 126.933 89.1666 127.8 92.7 127.8C95.2333 127.8 97.7333 127.167 100.2 125.9C102.667 124.633 104.267 124 105 124C106.4 124 107.567 124.667 108.5 126C109.433 127.267 109.9 128.5 109.9 129.7C109.9 131.567 108.2 133.433 104.8 135.3C101.467 137.1 97.3 138 92.3 138C85.1666 138 79.3333 136.133 74.8 132.4C70.3333 128.6 68.1 123.633 68.1 117.5ZM81 109.1H95.6C96.6666 109.1 97.4 108.933 97.8 108.6C98.2666 108.2 98.5 107.467 98.5 106.4C98.5 104.067 97.6333 102.167 95.9 100.7C94.2333 99.2333 92.1666 98.5 89.7 98.5C87.3666 98.5 85.3333 99.2333 83.6 100.7C81.8666 102.1 81 103.967 81 106.3V109.1Z" fill="white"/><path d="M31.9 115.4C31.3 114.667 31 113.6 31 112.2C31 110.8 31.3 109.733 31.9 109C32.5667 108.267 33.2667 107.833 34 107.7C34.7333 107.567 35.4 107.3 36 106.9C36.6667 106.433 37 105.767 37 104.9C37 104.3 36.7333 102.167 36.2 98.5C35.6667 94.8333 35.4 92.4 35.4 91.2C35.4 86.7333 37.5667 82.7667 41.9 79.3C46.3 75.7667 51.1333 74 56.4 74C61.1333 74 63.5 75.9 63.5 79.7C63.5 81.1 63.1333 82.3333 62.4 83.4C61.7333 84.4667 60.7667 85 59.5 85C56.9667 85 54.4667 85.7 52 87.1C49.6 88.4333 48.4 90.3667 48.4 92.9C48.4 93.7667 48.6667 96.0667 49.2 99.8C49.7333 103.533 50 105.767 50 106.5C50 107.767 49.5667 109 48.7 110.2C47.9 111.4 47.1333 112.133 46.4 112.4C47.2 112.6 48 113.3 48.8 114.5C49.6 115.633 50 116.867 50 118.2C50 119.067 49.7333 121.933 49.2 126.8C48.6667 131.6 48.4 134.4 48.4 135.2C48.4 137.533 49.6 139.233 52 140.3C54.4 141.3 56.9 141.8 59.5 141.8C60.9 141.8 61.9 142.367 62.5 143.5C63.1667 144.633 63.5 145.867 63.5 147.2C63.5 150.933 61.0667 152.8 56.2 152.8C50.8 152.8 45.9667 151.267 41.7 148.2C37.5 145.133 35.4 141.3 35.4 136.7C35.4 135.433 35.6667 132.433 36.2 127.7C36.7333 122.967 37 120.3 37 119.7C37 118.833 36.6667 118.167 36 117.7C35.4 117.233 34.7333 116.933 34 116.8C33.2667 116.6 32.5667 116.133 31.9 115.4Z" fill="white"/><path d="M158.7 109.5V118C158.7 123.467 156.567 128.167 152.3 132.1C148.033 136.033 142.867 138 136.8 138C131.133 138 126.3 136.2 122.3 132.6C118.233 129.067 116.2 124.6 116.2 119.2C116.2 117.2 116.467 115.533 117 114.2C117.467 112.933 118.233 112.033 119.3 111.5C120.3 110.967 121.233 110.633 122.1 110.5C122.967 110.367 124.1 110.3 125.5 110.3H145.8V108.8C145.8 105.933 144.733 103.6 142.6 101.8C140.467 100.067 137.633 99.2 134.1 99.2C131.567 99.2 129.067 99.8333 126.6 101.1C124.133 102.367 122.533 103 121.8 103C120.4 103 119.233 102.333 118.3 101C117.367 99.7333 116.9 98.5 116.9 97.3C116.9 95.4333 118.6 93.5667 122 91.7C125.333 89.9 129.5 89 134.5 89C141.633 89 147.467 90.8667 152 94.6C156.467 98.4 158.7 103.367 158.7 109.5ZM145.8 117.9H131.2C130.133 117.9 129.4 118.067 129 118.4C128.533 118.8 128.3 119.533 128.3 120.6C128.3 122.933 129.167 124.833 130.9 126.3C132.567 127.767 134.633 128.5 137.1 128.5C139.433 128.5 141.467 127.767 143.2 126.3C144.933 124.9 145.8 123.033 145.8 120.7V117.9Z" fill="white"/><path d="M163.3 147.2C163.3 145.867 163.6 144.633 164.2 143.5C164.867 142.367 165.933 141.8 167.4 141.8C169.933 141.8 172.4 141.3 174.8 140.3C177.2 139.233 178.4 137.533 178.4 135.2C178.4 134.4 178.133 131.6 177.6 126.8C177.067 121.933 176.8 119.067 176.8 118.2C176.8 116.867 177.2 115.633 178 114.5C178.867 113.367 179.667 112.667 180.4 112.4C179.667 112.133 178.867 111.4 178 110.2C177.2 109 176.8 107.767 176.8 106.5C176.8 105.767 177.067 103.533 177.6 99.8C178.133 96.0667 178.4 93.7667 178.4 92.9C178.4 90.3667 177.2 88.4333 174.8 87.1C172.4 85.7 169.933 85 167.4 85C166.133 85 165.133 84.4667 164.4 83.4C163.667 82.3333 163.3 81.1 163.3 79.7C163.3 78.1 163.867 76.7667 165 75.7C166.133 74.5667 167.967 74 170.5 74C175.767 74 180.567 75.7667 184.9 79.3C189.233 82.7667 191.4 86.7333 191.4 91.2C191.4 92.4 191.133 94.8333 190.6 98.5C190.067 102.167 189.8 104.3 189.8 104.9C189.8 105.767 190.1 106.433 190.7 106.9C191.367 107.3 192.067 107.567 192.8 107.7C193.533 107.833 194.2 108.267 194.8 109C195.467 109.733 195.8 110.8 195.8 112.2C195.8 113.6 195.467 114.667 194.8 115.4C194.2 116.133 193.533 116.6 192.8 116.8C192.067 116.933 191.367 117.233 190.7 117.7C190.1 118.167 189.8 118.833 189.8 119.7C189.8 120.3 190.067 122.967 190.6 127.7C191.133 132.433 191.4 135.433 191.4 136.7C191.4 141.3 189.267 145.133 185 148.2C180.8 151.267 176 152.8 170.6 152.8C165.733 152.8 163.3 150.933 163.3 147.2Z" fill="white"/></svg>