<svg width="216" height="48" viewBox="0 0 216 48" fill="none" xmlns="http://www.w3.org/2000/svg"><path d="M6.89273 14.788H17.0807C18.0167 14.788 18.5567 13.816 18.5567 12.7C18.5567 11.728 18.0887 10.684 17.0807 10.684H4.26473C3.22073 10.684 2.21273 11.188 2.21273 12.16V35.524C2.21273 36.496 3.22073 37 4.26473 37H17.0807C18.0887 37 18.5567 35.956 18.5567 34.984C18.5567 33.868 18.0167 32.896 17.0807 32.896H6.89273V25.66H12.3647C13.3727 25.66 13.8407 24.688 13.8407 23.86C13.8407 22.888 13.3007 21.988 12.3647 21.988H6.89273V14.788ZM21.3026 35.524C21.3026 36.496 22.4906 37 23.6426 37C24.8306 37 25.9826 36.496 25.9826 35.524V26.128H29.0066L34.1186 36.064C34.4786 36.784 35.0906 37.18 35.7386 37.18C37.1066 37.18 38.6546 35.92 38.6546 34.732C38.6546 34.588 38.6186 34.336 38.4746 34.156L33.7586 25.408C36.4586 24.58 38.4746 22.348 38.4746 18.208C38.4746 12.484 34.6586 10.684 29.9426 10.684H22.8146C21.9146 10.684 21.3026 11.368 21.3026 12.124V35.524ZM29.9426 14.788C32.2826 14.788 33.7946 15.796 33.7946 18.64C33.7946 21.484 32.2826 22.456 29.9426 22.456H25.9826V14.788H29.9426ZM41.8338 35.524C41.8338 36.496 42.9858 37 44.1738 37C45.3258 37 46.5138 36.496 46.5138 35.524V12.124C46.5138 11.116 45.3258 10.684 44.1738 10.684C42.9858 10.684 41.8338 11.116 41.8338 12.124V35.524ZM62.7858 18.352C62.8218 19.432 63.7938 19.828 65.1258 19.828C66.7098 19.828 67.4658 19.396 67.4658 17.524C67.4658 13.348 63.9018 10.684 58.8978 10.684C54.3618 10.684 50.5818 12.916 50.5818 18.928V28.972C50.5818 34.984 54.3258 37.216 58.8618 37.216C63.9018 37.216 67.4658 34.444 67.4658 30.088C67.4658 28.252 66.7098 27.784 65.0898 27.784C63.8658 27.784 62.8578 28.144 62.7858 29.26C62.6778 30.772 62.3898 33.112 59.1138 33.112C56.6298 33.112 55.2618 31.78 55.2618 28.972V18.928C55.2618 16.12 56.6298 14.788 59.0418 14.788C62.4618 14.788 62.7138 17.236 62.7858 18.352ZM70.6268 35.524C70.6268 36.496 71.7788 37 72.9668 37C74.1188 37 75.3068 36.496 75.3068 35.524V28.468L77.2508 26.02L84.0188 36.28C84.4148 36.928 85.0268 37.18 85.6388 37.18C87.0068 37.18 88.4468 35.992 88.4468 34.84C88.4468 34.552 88.3748 34.264 88.1948 34.012L80.3468 22.06L86.7908 13.996C87.0428 13.672 87.0788 13.348 87.0788 13.096C87.0788 11.908 85.5668 10.684 84.3788 10.684C83.8748 10.684 83.4428 10.864 83.0828 11.368L75.3068 21.952V12.124C75.3068 11.116 74.1188 10.684 72.9668 10.684C71.7788 10.684 70.6268 11.116 70.6268 12.124V35.524ZM102.881 35.632C103.241 36.712 104.537 37.216 105.905 37.216C107.273 37.216 108.605 36.712 108.929 35.632L115.841 12.988C115.877 12.844 115.913 12.736 115.913 12.628C115.913 11.512 114.221 10.684 112.961 10.684C112.169 10.684 111.557 10.936 111.377 11.62L105.905 31.132L100.397 11.62C100.217 10.936 99.6051 10.684 98.8131 10.684C97.5531 10.684 95.8611 11.476 95.8611 12.628C95.8611 12.7 95.8971 12.844 95.9331 12.988L102.881 35.632ZM118.149 37C118.941 37 119.553 36.748 119.733 36.064L121.101 31.276H129.345L130.713 36.064C130.893 36.748 131.505 37 132.297 37C133.557 37 135.249 36.172 135.249 35.056C135.249 34.948 135.213 34.84 135.177 34.696L128.229 12.052C127.905 10.972 126.573 10.468 125.205 10.468C123.873 10.468 122.541 10.972 122.217 12.052L115.269 34.696C115.233 34.84 115.197 34.984 115.197 35.056C115.197 36.208 116.889 37 118.149 37ZM122.073 27.604L125.205 16.552L128.337 27.604H122.073ZM137.74 35.524C137.74 36.496 138.928 37 140.08 37C141.268 37 142.42 36.496 142.42 35.524V26.128H145.444L150.556 36.064C150.916 36.784 151.528 37.18 152.176 37.18C153.544 37.18 155.092 35.92 155.092 34.732C155.092 34.588 155.056 34.336 154.912 34.156L150.196 25.408C152.896 24.58 154.912 22.348 154.912 18.208C154.912 12.484 151.096 10.684 146.38 10.684H139.252C138.352 10.684 137.74 11.368 137.74 12.124V35.524ZM146.38 14.788C148.72 14.788 150.232 15.796 150.232 18.64C150.232 21.484 148.72 22.456 146.38 22.456H142.42V14.788H146.38ZM170.187 18.352C170.223 19.468 171.267 19.828 172.527 19.828C174.075 19.828 174.867 19.396 174.867 17.596C174.867 13.276 171.231 10.684 166.263 10.684C161.691 10.684 157.983 12.916 157.983 18.928V28.972C157.983 34.984 161.655 37.216 166.407 37.216C171.159 37.216 174.867 34.984 174.867 28.972V24.688C174.867 23.896 174.327 23.176 173.391 23.176H167.271C166.335 23.176 165.831 24.112 165.831 25.012C165.831 25.948 166.335 26.848 167.271 26.848H170.187V28.972C170.187 31.78 168.747 33.112 166.407 33.112C164.031 33.112 162.663 31.78 162.663 28.972V18.928C162.663 16.12 164.031 14.788 166.443 14.788C169.503 14.788 170.079 16.66 170.187 18.352ZM179.708 37C180.5 37 181.112 36.748 181.292 36.064L182.66 31.276H190.904L192.272 36.064C192.452 36.748 193.064 37 193.856 37C195.116 37 196.808 36.172 196.808 35.056C196.808 34.948 196.772 34.84 196.736 34.696L189.788 12.052C189.464 10.972 188.132 10.468 186.764 10.468C185.432 10.468 184.1 10.972 183.776 12.052L176.828 34.696C176.792 34.84 176.756 34.984 176.756 35.056C176.756 36.208 178.448 37 179.708 37ZM183.632 27.604L186.764 16.552L189.896 27.604H183.632ZM206.175 33.112C202.503 33.112 201.531 30.34 200.055 30.34C198.939 30.34 198.003 31.852 198.003 32.86C198.003 34.948 201.603 37.324 206.319 37.324C211.287 37.324 214.887 34.66 214.887 29.512C214.887 20.188 203.331 21.736 203.331 17.272C203.331 15.544 204.807 14.5 207.399 14.5C210.423 14.5 211.251 15.868 212.367 15.868C213.663 15.868 214.239 14.212 214.239 13.384C214.239 11.008 209.523 10.504 207.399 10.504C203.259 10.504 198.651 12.34 198.651 17.704C198.651 26.236 210.207 24.58 210.207 29.98C210.207 32.14 208.335 33.112 206.175 33.112Z" fill="#2D3748"/></svg>